<mxfile host="app.diagrams.net" modified="2024-02-27T06:25:04.696Z" agent="Mozilla/5.0 (Windows NT 10.0; Win64; x64) AppleWebKit/537.36 (KHTML, like Gecko) Chrome/122.0.0.0 Safari/537.36" etag="pgoMcoSWcyenC_ZR6xxD" version="23.1.7" type="github">
  <diagram name="Page-1" id="ClFE4-3hhdOMaHOsxbhf">
    <mxGraphModel dx="794" dy="493" grid="1" gridSize="10" guides="1" tooltips="1" connect="1" arrows="1" fold="1" page="1" pageScale="1" pageWidth="850" pageHeight="1100" math="0" shadow="0">
      <root>
        <mxCell id="0" />
        <mxCell id="1" parent="0" />
        <mxCell id="MpinDTem4rhJas81sLsA-1" style="edgeStyle=orthogonalEdgeStyle;rounded=0;orthogonalLoop=1;jettySize=auto;html=1;entryX=0.5;entryY=0;entryDx=0;entryDy=0;" edge="1" parent="1" source="MpinDTem4rhJas81sLsA-2" target="MpinDTem4rhJas81sLsA-5">
          <mxGeometry relative="1" as="geometry" />
        </mxCell>
        <mxCell id="MpinDTem4rhJas81sLsA-2" value="START" style="rounded=1;whiteSpace=wrap;html=1;" vertex="1" parent="1">
          <mxGeometry x="239.5" y="100" width="110" height="40" as="geometry" />
        </mxCell>
        <mxCell id="MpinDTem4rhJas81sLsA-3" style="edgeStyle=orthogonalEdgeStyle;rounded=0;orthogonalLoop=1;jettySize=auto;html=1;entryX=0.5;entryY=0;entryDx=0;entryDy=0;" edge="1" parent="1" source="MpinDTem4rhJas81sLsA-5" target="MpinDTem4rhJas81sLsA-6">
          <mxGeometry relative="1" as="geometry">
            <Array as="points">
              <mxPoint x="172.5" y="210" />
            </Array>
          </mxGeometry>
        </mxCell>
        <mxCell id="MpinDTem4rhJas81sLsA-4" style="edgeStyle=orthogonalEdgeStyle;rounded=0;orthogonalLoop=1;jettySize=auto;html=1;entryX=0.5;entryY=0;entryDx=0;entryDy=0;" edge="1" parent="1" source="MpinDTem4rhJas81sLsA-5" target="MpinDTem4rhJas81sLsA-11">
          <mxGeometry relative="1" as="geometry">
            <mxPoint x="417.5" y="260" as="targetPoint" />
            <Array as="points">
              <mxPoint x="427.5" y="210" />
            </Array>
          </mxGeometry>
        </mxCell>
        <mxCell id="MpinDTem4rhJas81sLsA-5" value="Is it cleanly &lt;br&gt;divisible by 4?" style="rhombus;whiteSpace=wrap;html=1;" vertex="1" parent="1">
          <mxGeometry x="227" y="170" width="135" height="80" as="geometry" />
        </mxCell>
        <mxCell id="MpinDTem4rhJas81sLsA-6" value="Not Leap" style="rounded=1;whiteSpace=wrap;html=1;fillColor=#f8cecc;strokeColor=#b85450;" vertex="1" parent="1">
          <mxGeometry x="117" y="260" width="110" height="40" as="geometry" />
        </mxCell>
        <mxCell id="MpinDTem4rhJas81sLsA-7" value="No" style="text;html=1;align=center;verticalAlign=middle;resizable=0;points=[];autosize=1;" vertex="1" parent="1">
          <mxGeometry x="189.5" y="190" width="30" height="20" as="geometry" />
        </mxCell>
        <mxCell id="MpinDTem4rhJas81sLsA-8" value="Yes" style="text;html=1;align=center;verticalAlign=middle;resizable=0;points=[];autosize=1;" vertex="1" parent="1">
          <mxGeometry x="369.5" y="190" width="40" height="20" as="geometry" />
        </mxCell>
        <mxCell id="MpinDTem4rhJas81sLsA-9" style="edgeStyle=orthogonalEdgeStyle;rounded=0;orthogonalLoop=1;jettySize=auto;html=1;exitX=0;exitY=0.5;exitDx=0;exitDy=0;entryX=0.5;entryY=0;entryDx=0;entryDy=0;" edge="1" parent="1" source="MpinDTem4rhJas81sLsA-11" target="MpinDTem4rhJas81sLsA-12">
          <mxGeometry relative="1" as="geometry" />
        </mxCell>
        <mxCell id="MpinDTem4rhJas81sLsA-10" style="edgeStyle=orthogonalEdgeStyle;rounded=0;orthogonalLoop=1;jettySize=auto;html=1;exitX=1;exitY=0.5;exitDx=0;exitDy=0;entryX=0.5;entryY=0;entryDx=0;entryDy=0;" edge="1" parent="1" source="MpinDTem4rhJas81sLsA-11" target="MpinDTem4rhJas81sLsA-15">
          <mxGeometry relative="1" as="geometry" />
        </mxCell>
        <mxCell id="MpinDTem4rhJas81sLsA-11" value="Is it cleanly &lt;br&gt;divisible by 100?" style="rhombus;whiteSpace=wrap;html=1;" vertex="1" parent="1">
          <mxGeometry x="362" y="260" width="130" height="80" as="geometry" />
        </mxCell>
        <mxCell id="MpinDTem4rhJas81sLsA-12" value="Leap" style="rounded=1;whiteSpace=wrap;html=1;fillColor=#d5e8d4;strokeColor=#82b366;" vertex="1" parent="1">
          <mxGeometry x="252" y="370" width="110" height="40" as="geometry" />
        </mxCell>
        <mxCell id="MpinDTem4rhJas81sLsA-13" style="edgeStyle=orthogonalEdgeStyle;rounded=0;orthogonalLoop=1;jettySize=auto;html=1;exitX=0;exitY=0.5;exitDx=0;exitDy=0;entryX=0.5;entryY=0;entryDx=0;entryDy=0;" edge="1" parent="1" source="MpinDTem4rhJas81sLsA-15" target="MpinDTem4rhJas81sLsA-21">
          <mxGeometry relative="1" as="geometry" />
        </mxCell>
        <mxCell id="MpinDTem4rhJas81sLsA-14" style="edgeStyle=orthogonalEdgeStyle;rounded=0;orthogonalLoop=1;jettySize=auto;html=1;exitX=1;exitY=0.5;exitDx=0;exitDy=0;entryX=0.5;entryY=0;entryDx=0;entryDy=0;" edge="1" parent="1" source="MpinDTem4rhJas81sLsA-15" target="MpinDTem4rhJas81sLsA-16">
          <mxGeometry relative="1" as="geometry" />
        </mxCell>
        <mxCell id="MpinDTem4rhJas81sLsA-15" value="Is it cleanly &lt;br&gt;divisible by 400?" style="rhombus;whiteSpace=wrap;html=1;" vertex="1" parent="1">
          <mxGeometry x="459.5" y="370" width="140" height="80" as="geometry" />
        </mxCell>
        <mxCell id="MpinDTem4rhJas81sLsA-16" value="Leap" style="rounded=1;whiteSpace=wrap;html=1;fillColor=#d5e8d4;strokeColor=#82b366;" vertex="1" parent="1">
          <mxGeometry x="599.5" y="490" width="110" height="40" as="geometry" />
        </mxCell>
        <mxCell id="MpinDTem4rhJas81sLsA-17" value="Yes" style="text;html=1;align=center;verticalAlign=middle;resizable=0;points=[];autosize=1;" vertex="1" parent="1">
          <mxGeometry x="492" y="280" width="40" height="20" as="geometry" />
        </mxCell>
        <mxCell id="MpinDTem4rhJas81sLsA-18" value="No" style="text;html=1;align=center;verticalAlign=middle;resizable=0;points=[];autosize=1;" vertex="1" parent="1">
          <mxGeometry x="319.5" y="280" width="30" height="20" as="geometry" />
        </mxCell>
        <mxCell id="MpinDTem4rhJas81sLsA-19" value="No" style="text;html=1;align=center;verticalAlign=middle;resizable=0;points=[];autosize=1;" vertex="1" parent="1">
          <mxGeometry x="419.5" y="390" width="30" height="20" as="geometry" />
        </mxCell>
        <mxCell id="MpinDTem4rhJas81sLsA-20" value="Yes" style="text;html=1;align=center;verticalAlign=middle;resizable=0;points=[];autosize=1;" vertex="1" parent="1">
          <mxGeometry x="599.5" y="390" width="40" height="20" as="geometry" />
        </mxCell>
        <mxCell id="MpinDTem4rhJas81sLsA-21" value="Not Leap" style="rounded=1;whiteSpace=wrap;html=1;fillColor=#f8cecc;strokeColor=#b85450;" vertex="1" parent="1">
          <mxGeometry x="349.5" y="490" width="110" height="40" as="geometry" />
        </mxCell>
      </root>
    </mxGraphModel>
  </diagram>
</mxfile>
